<svg id="svg" xmlns="http://www.w3.org/2000/svg" xmlns:xlink="http://www.w3.org/1999/xlink" width="400" height="364.6666666666667" viewBox="0, 0, 400,364.6666666666667"><g id="svgg"><path id="path0" d="M310.418 1.384 C 245.206 12.862,206.223 77.719,229.018 136.812 C 232.478 145.781,238.292 157.044,246.053 169.809 C 249.795 175.964,255.629 185.572,259.019 191.159 C 270.240 209.658,276.427 223.935,279.417 238.235 C 284.639 263.209,275.589 301.838,258.269 328.500 C 253.773 335.421,253.430 335.421,256.626 328.500 C 271.802 295.637,269.646 259.145,250.728 228.693 C 234.756 202.981,219.331 193.341,176.667 182.407 C 151.591 175.981,150.810 175.534,140.813 161.895 C 138.218 158.354,133.873 152.954,131.159 149.895 C 126.630 144.791,126.155 143.977,125.391 140.000 C 123.018 127.656,112.761 116.531,103.675 116.447 C 97.708 116.392,95.141 118.659,88.957 129.446 L 86.248 134.172 79.957 136.414 C 56.648 144.721,43.582 155.206,33.534 173.667 C 31.738 176.967,28.856 181.577,27.130 183.913 C 16.153 198.763,25.437 217.070,46.833 222.767 C 48.575 223.230,50.000 223.797,50.000 224.025 C 50.000 224.948,38.467 226.829,29.684 227.338 C 7.768 228.609,-0.792 236.027,0.141 252.939 C 1.051 269.422,13.978 275.984,35.679 270.978 C 44.677 268.902,54.644 268.296,64.397 269.231 C 86.130 271.315,97.357 265.157,91.895 254.148 C 89.484 249.288,87.003 248.355,78.447 249.087 C 74.067 249.461,68.835 249.405,63.667 248.926 C 53.967 248.029,44.269 248.690,33.008 251.016 C 22.309 253.226,20.000 253.217,20.000 250.966 C 20.000 248.252,23.340 247.298,34.951 246.695 C 64.995 245.135,90.867 229.858,85.630 216.771 C 83.825 212.259,78.148 209.783,58.820 205.078 C 44.771 201.659,41.320 198.726,45.382 193.659 C 46.849 191.830,49.676 187.181,51.665 183.329 C 59.317 168.507,73.173 158.511,93.188 153.372 C 99.554 151.737,100.638 150.942,103.370 145.903 L 105.667 141.667 106.000 147.041 L 106.333 152.415 113.111 159.794 C 116.839 163.852,122.415 170.584,125.503 174.753 C 138.186 191.880,142.383 194.336,172.056 201.994 C 212.069 212.321,224.418 220.599,237.548 245.894 C 253.985 277.558,248.148 317.213,223.022 344.593 C 216.801 351.371,216.055 356.127,220.402 361.293 C 223.569 365.057,231.773 364.867,263.667 360.288 C 333.986 350.194,382.338 319.914,395.600 277.667 C 400.253 262.844,401.356 238.704,398.113 222.667 C 392.445 194.635,380.266 171.243,351.138 132.448 C 335.696 111.880,331.585 105.673,326.331 95.000 C 307.677 57.100,307.632 18.729,326.223 3.551 C 330.756 -0.149,324.218 -1.046,310.418 1.384 " stroke="none" fill="#000000" fill-rule="evenodd"></path></g></svg>