<?xml version="1.0" encoding="UTF-8"?>
<!DOCTYPE svg PUBLIC "-//W3C//DTD SVG 1.1//EN" "http://www.w3.org/Graphics/SVG/1.1/DTD/svg11.dtd">
<svg version="1.1" xmlns="http://www.w3.org/2000/svg" xmlns:xlink="http://www.w3.org/1999/xlink" x="0" y="0" width="400" height="364.667" viewBox="0, 0, 400, 364.667">
  <g id="svgg">
    <path d="M89.626,1.384 C154.838,12.862 193.821,77.719 171.026,136.812 C167.566,145.781 161.752,157.044 153.991,169.809 C150.249,175.964 144.415,185.572 141.025,191.159 C129.804,209.658 123.617,223.935 120.627,238.235 C115.405,263.209 124.455,301.838 141.775,328.5 C146.271,335.421 146.614,335.421 143.418,328.5 C128.242,295.637 130.398,259.145 149.316,228.693 C165.288,202.981 180.713,193.341 223.377,182.407 C248.453,175.981 249.234,175.534 259.231,161.895 C261.826,158.354 266.171,152.954 268.885,149.895 C273.414,144.791 273.889,143.977 274.653,140 C277.026,127.656 287.283,116.531 296.369,116.447 C302.336,116.392 304.903,118.659 311.087,129.446 L313.796,134.172 L320.087,136.414 C343.396,144.721 356.462,155.206 366.51,173.667 C368.306,176.967 371.188,181.577 372.914,183.913 C383.891,198.763 374.607,217.07 353.211,222.767 C351.469,223.23 350.044,223.797 350.044,224.025 C350.044,224.948 361.577,226.829 370.36,227.338 C392.276,228.609 400.836,236.027 399.903,252.939 C398.993,269.422 386.066,275.984 364.365,270.978 C355.367,268.902 345.4,268.296 335.647,269.231 C313.914,271.315 302.687,265.157 308.149,254.148 C310.56,249.288 313.041,248.355 321.597,249.087 C325.977,249.461 331.209,249.405 336.377,248.926 C346.077,248.029 355.775,248.69 367.036,251.016 C377.735,253.226 380.044,253.217 380.044,250.966 C380.044,248.252 376.704,247.298 365.093,246.695 C335.049,245.135 309.177,229.858 314.414,216.771 C316.219,212.259 321.896,209.783 341.224,205.078 C355.273,201.659 358.724,198.726 354.662,193.659 C353.195,191.83 350.368,187.181 348.379,183.329 C340.727,168.507 326.871,158.511 306.856,153.372 C300.49,151.737 299.406,150.942 296.674,145.903 L294.377,141.667 L294.044,147.041 L293.711,152.415 L286.933,159.794 C283.205,163.852 277.629,170.584 274.541,174.753 C261.858,191.88 257.661,194.336 227.988,201.994 C187.975,212.321 175.626,220.599 162.496,245.894 C146.059,277.558 151.896,317.213 177.022,344.593 C183.243,351.371 183.989,356.127 179.642,361.293 C176.475,365.057 168.271,364.867 136.377,360.288 C66.058,350.194 17.706,319.914 4.444,277.667 C-0.209,262.844 -1.312,238.704 1.931,222.667 C7.599,194.635 19.778,171.243 48.906,132.448 C64.348,111.88 68.459,105.673 73.713,95 C92.367,57.1 92.412,18.729 73.821,3.551 C69.288,-0.149 75.826,-1.046 89.626,1.384" fill="#FFFFFF" id="path0"/>
  </g>
</svg>
